<svg xmlns="http://www.w3.org/2000/svg" width="430" height="430" fill="none" viewBox="0 0 430 430"><g stroke-linecap="round" stroke-linejoin="round" stroke-miterlimit="10" stroke-width="6"><path stroke="#242424" d="m203.949 119-51.2 109.9-29.1 62.4-22.7 48.6c16 25.1 69.2 37.1 120.7 36 23.3-.5 46.2-3.7 65.2-9.6 19.5-6 34.8-14.8 42.2-26.4l-48.5-104-32.5-69.8-19.2-41.2"/><path stroke="#4030e8" d="M195.349 72.3c-4.3 4.3-15.7 4.5-17.1 9.9-1.5 5.6 8.3 11.5 9.8 17.1 1.5 5.4-4.2 15.5.1 19.8s14.3-1.4 19.8.1c5.6 1.5 11.5 11.3 17.1 9.8 5.4-1.5 5.7-12.8 9.9-17.1 4.3-4.3 15.7-4.5 17.1-9.9 1.5-5.6-8.3-11.5-9.8-17.1-1.5-5.4 4.2-15.5-.1-19.8s-14.3 1.4-19.8-.1c-5.6-1.5-11.5-11.3-17.1-9.8-5.5 1.4-5.7 12.8-9.9 17.1"/><path stroke="#242424" d="M286.949 366.3c1.9-4.6 3-9.6 3-14.9 0-21.3-17.2-38.5-38.5-38.5s-38.5 17.2-38.5 38.5c0 9.3 3.3 17.8 8.8 24.5m-68.999-147h1.1c21.3 0 38.5 17.2 38.5 38.5s-17.2 38.5-38.5 38.5c-12.2 0-23.1-5.7-30.1-14.6m156.9-55.5c-5.1 2.5-10.8 3.9-16.9 3.9-21.3 0-38.5-17.2-38.5-38.5 0-15.7 9.4-29.2 22.9-35.2"/></g></svg>