<svg xmlns="http://www.w3.org/2000/svg" width="430" height="430" fill="none" viewBox="0 0 430 430"><path stroke="#121331" stroke-linecap="round" stroke-linejoin="round" stroke-width="7" d="M26.6 132.14h80.84M26.6 173.89h80.84m-80.69 41.25h80.85m-80.85 41.75h80.85m-81 41.25h80.84"/><path fill="#fff" d="M403.459 132.16v166.7h-251.73V132.14h16.231z"/><path fill="#4030e8" d="m403.459 132.16-105.3 105.65c-.29.29-.59.58-.9.86s-.54.49-.82.72a.4.4 0 0 1-.13.11c-.29.25-.59.5-.9.73s-.63.49-1 .72a27 27 0 0 1-3.13 2c-.19.11-.39.21-.59.31l-.64.32-.48.22c-.31.15-.63.28-.95.41l-.23.1-1 .37c-.58.22-1.18.41-1.78.58-.35.11-.72.2-1.08.29q-.169.063-.35.08c-.21.06-.43.11-.65.15s-.45.1-.68.14l-.82.14-.48.08c-.38.06-.76.1-1.14.14h-1.85a29.12 29.12 0 0 1-21.78-8.55l-17.64-17.74-.19-.19-86.57-87-.69-.7h16.31z"/><path fill="#4030e8" d="M285.58 245.22c-.59.17-1.18.32-1.77.46a.8.8 0 0 1-.21 0c-.22.06-.45.1-.68.14l-.82.14-.48.08c-.38.06-.76.1-1.14.14h-1.85a29.12 29.12 0 0 1-21.78-8.55l-17.64-17.74-.19-.19-87.26-87.74H168c.17.2 87.42 87.93 87.42 87.93L273 237.81a29 29 0 0 0 12.58 7.41" opacity=".5" style="mix-blend-mode:multiply"/><path stroke="#121331" stroke-linecap="round" stroke-linejoin="round" stroke-width="7" d="m153.49 134.29 103.33 103.52a29.214 29.214 0 0 0 41.34 0l103.31-103.49"/><path stroke="#121331" stroke-linecap="round" stroke-linejoin="round" stroke-width="7" d="M403.459 132.16v166.7h-251.73V132.14h16.231z"/><path stroke="#121331" stroke-linecap="round" stroke-linejoin="round" stroke-width="7" d="M321.829 214.09a83.3 83.3 0 0 1 15.6 10.72l66 57.05m-251.73 1.22 66.44-58.39a83.4 83.4 0 0 1 15.15-10.43"/><path fill="#fff" d="m239.17 220.07-87.45 73.18v-10.17l66.45-58.39a83.2 83.2 0 0 1 15.14-10.43zm164.28 63.06v10.13L316 220.07l5.86-5.81A83.3 83.3 0 0 1 337 224.69l66.44 58.39z" opacity=".5" style="mix-blend-mode:multiply"/></svg>