<svg xmlns="http://www.w3.org/2000/svg" width="430" height="430" fill="none" viewBox="0 0 430 430"><g stroke-linecap="round" stroke-linejoin="round" stroke-width="6"><path stroke="#121331" d="M320.19 346.239c0 75.94-69.67 13.94-101.56 13.94-33.34 0-101.57 59.64-101.57-13.94 0-56.09 45.47-137.04 101.57-137.04s101.56 80.94 101.56 137.04"/><path stroke="#4030e8" d="M129.8 175.45c11.49 30.42 7.07 60.27-9.89 66.67-16.96 6.41-40.02-13.05-51.52-43.47-10.41-27.55-7.76-54.63 5.43-64.25 1.37-1 2.86-1.82 4.46-2.42s3.25-.98 4.94-1.14c16.26-1.51 36.16 17.06 46.58 44.61m66.31-73.62c7.15 31.72-1.39 60.66-19.07 64.65s-37.81-18.5-44.96-50.22c-6.48-28.73-.08-55.18 14.32-62.87 1.5-.8 3.09-1.4 4.75-1.78 1.67-.38 3.36-.52 5.05-.44 16.31.78 33.44 21.93 39.91 50.66m103.54 5.889c-4.13 32.25-22.05 56.53-40.03 54.23s-29.21-30.31-25.08-62.57c3.74-29.21 18.79-51.88 34.96-54.19a18.8 18.8 0 0 1 9.98 1.28c15.05 6.3 23.91 32.04 20.17 61.25m62.02 85.751c-11.81 30.29-35.07 49.52-51.96 42.93-16.89-6.58-21.01-36.48-9.2-66.77 10.69-27.44 30.79-45.79 47.03-44.12 1.69.17 3.34.56 4.93 1.19 1.59.62 3.07 1.45 4.43 2.46 13.1 9.76 15.47 36.87 4.77 64.31"/></g></svg>